<svg width="800" height="600" viewBox="0 0 800 600" fill="none" xmlns="http://www.w3.org/2000/svg">
  <defs>
    <linearGradient id="bg2" x1="0%" y1="0%" x2="100%" y2="100%">
      <stop offset="0%" style="stop-color:#f8fafc;stop-opacity:1" />
      <stop offset="100%" style="stop-color:#f1f5f9;stop-opacity:1" />
    </linearGradient>
    <linearGradient id="node1" x1="0%" y1="0%" x2="100%" y2="100%">
      <stop offset="0%" style="stop-color:#6366f1;stop-opacity:1" />
      <stop offset="100%" style="stop-color:#8b5cf6;stop-opacity:1" />
    </linearGradient>
    <linearGradient id="node2" x1="0%" y1="0%" x2="100%" y2="100%">
      <stop offset="0%" style="stop-color:#10b981;stop-opacity:1" />
      <stop offset="100%" style="stop-color:#059669;stop-opacity:1" />
    </linearGradient>
    <linearGradient id="node3" x1="0%" y1="0%" x2="100%" y2="100%">
      <stop offset="0%" style="stop-color:#f59e0b;stop-opacity:1" />
      <stop offset="100%" style="stop-color:#d97706;stop-opacity:1" />
    </linearGradient>
    <linearGradient id="node4" x1="0%" y1="0%" x2="100%" y2="100%">
      <stop offset="0%" style="stop-color:#ef4444;stop-opacity:1" />
      <stop offset="100%" style="stop-color:#dc2626;stop-opacity:1" />
    </linearGradient>
    <linearGradient id="node5" x1="0%" y1="0%" x2="100%" y2="100%">
      <stop offset="0%" style="stop-color:#8b5cf6;stop-opacity:1" />
      <stop offset="100%" style="stop-color:#7c3aed;stop-opacity:1" />
    </linearGradient>
    <linearGradient id="node6" x1="0%" y1="0%" x2="100%" y2="100%">
      <stop offset="0%" style="stop-color:#06b6d4;stop-opacity:1" />
      <stop offset="100%" style="stop-color:#0891b2;stop-opacity:1" />
    </linearGradient>
  </defs>
  <rect width="800" height="600" fill="url(#bg2)"/>
  <circle cx="200" cy="150" r="50" fill="url(#node1)"/>
  <circle cx="400" cy="150" r="50" fill="url(#node2)"/>
  <circle cx="600" cy="150" r="50" fill="url(#node3)"/>
  <circle cx="200" cy="300" r="50" fill="url(#node4)"/>
  <circle cx="400" cy="300" r="50" fill="url(#node5)"/>
  <circle cx="600" cy="300" r="50" fill="url(#node6)"/>
  <circle cx="200" cy="450" r="50" fill="#84cc16"/>
  <circle cx="400" cy="450" r="50" fill="#f97316"/>
  <circle cx="600" cy="450" r="50" fill="#ec4899"/>
  <line x1="200" y1="150" x2="400" y2="300" stroke="#6366f1" stroke-width="3" opacity="0.6"/>
  <line x1="400" y1="150" x2="600" y2="300" stroke="#10b981" stroke-width="3" opacity="0.6"/>
  <line x1="200" y1="300" x2="400" y2="450" stroke="#f59e0b" stroke-width="3" opacity="0.6"/>
  <line x1="400" y1="300" x2="600" y2="450" stroke="#ef4444" stroke-width="3" opacity="0.6"/>
  <line x1="200" y1="150" x2="400" y2="150" stroke="#8b5cf6" stroke-width="2" opacity="0.4"/>
  <line x1="400" y1="150" x2="600" y2="150" stroke="#8b5cf6" stroke-width="2" opacity="0.4"/>
  <line x1="200" y1="300" x2="400" y2="300" stroke="#8b5cf6" stroke-width="2" opacity="0.4"/>
  <line x1="400" y1="300" x2="600" y2="300" stroke="#8b5cf6" stroke-width="2" opacity="0.4"/>
  <text x="400" y="80" text-anchor="middle" fill="#0f172a" font-family="system-ui" font-size="24" font-weight="600">Integration Network</text>
</svg>
