<svg width="800" height="600" viewBox="0 0 800 600" fill="none" xmlns="http://www.w3.org/2000/svg">
  <defs>
    <linearGradient id="bg1" x1="0%" y1="0%" x2="100%" y2="100%">
      <stop offset="0%" style="stop-color:#f8fafc;stop-opacity:1" />
      <stop offset="100%" style="stop-color:#f1f5f9;stop-opacity:1" />
    </linearGradient>
    <linearGradient id="card1" x1="0%" y1="0%" x2="100%" y2="100%">
      <stop offset="0%" style="stop-color:#6366f1;stop-opacity:1" />
      <stop offset="100%" style="stop-color:#8b5cf6;stop-opacity:1" />
    </linearGradient>
    <linearGradient id="card2" x1="0%" y1="0%" x2="100%" y2="100%">
      <stop offset="0%" style="stop-color:#10b981;stop-opacity:1" />
      <stop offset="100%" style="stop-color:#059669;stop-opacity:1" />
    </linearGradient>
    <linearGradient id="card3" x1="0%" y1="0%" x2="100%" y2="100%">
      <stop offset="0%" style="stop-color:#f59e0b;stop-opacity:1" />
      <stop offset="100%" style="stop-color:#d97706;stop-opacity:1" />
    </linearGradient>
    <linearGradient id="card4" x1="0%" y1="0%" x2="100%" y2="100%">
      <stop offset="0%" style="stop-color:#ef4444;stop-opacity:1" />
      <stop offset="100%" style="stop-color:#dc2626;stop-opacity:1" />
    </linearGradient>
  </defs>
  <rect width="800" height="600" fill="url(#bg1)"/>
  <rect x="50" y="50" width="700" height="500" rx="20" fill="#ffffff" stroke="#e2e8f0" stroke-width="2"/>
  <rect x="100" y="100" width="600" height="80" rx="12" fill="url(#card1)"/>
  <rect x="100" y="200" width="200" height="200" rx="12" fill="url(#card2)"/>
  <rect x="320" y="200" width="200" height="200" rx="12" fill="url(#card3)"/>
  <rect x="540" y="200" width="160" height="200" rx="12" fill="url(#card4)"/>
  <rect x="100" y="420" width="600" height="80" rx="12" fill="#8b5cf6"/>
  <text x="400" y="60" text-anchor="middle" fill="#0f172a" font-family="system-ui" font-size="24" font-weight="600">Dashboard Interface</text>
  <circle cx="150" cy="130" r="4" fill="#ffffff" opacity="0.8"/>
  <circle cx="170" cy="130" r="4" fill="#ffffff" opacity="0.6"/>
  <circle cx="190" cy="130" r="4" fill="#ffffff" opacity="0.4"/>
</svg>
